<?xml version="1.0" encoding="UTF-8"?>
<svg width="139px" height="40px" viewBox="0 0 139 40" version="1.1" xmlns="http://www.w3.org/2000/svg" xmlns:xlink="http://www.w3.org/1999/xlink">
    <!-- Generator: Sketch 51 (57462) - http://www.bohemiancoding.com/sketch -->
    <title>appstore</title>
    <desc>Created with Sketch.</desc>
    <defs></defs>
    <g id="Page-1" stroke="none" stroke-width="1" fill="none" fill-rule="evenodd">
        <g id="Hudle-landing-page" transform="translate(-272.000000, -3783.000000)" fill-rule="nonzero">
            <g id="footer-section" transform="translate(0.000000, 3599.000000)">
                <g id="logo-n-download" transform="translate(110.000000, 60.000000)">
                    <g id="appstore" transform="translate(161.000000, 123.000000)">
                        <path d="M135.983533,41 L4.93917778,41 C2.21631111,41 0,38.8188 0,36.148675 L0,4.84415 C0,2.173 2.21631111,0 4.93917778,0 L135.983533,0 C138.705356,0 141,2.173 141,4.84415 L141,36.148675 C141,38.8188 138.705356,41 135.983533,41 Z" id="Shape"></path>
                        <path d="M140,36.9903685 C140,39.2056114 138.210587,41 135.997311,41 L5.00790885,41 C2.7956768,41 1,39.2056114 1,36.9903685 L1,5.014866 C1,2.80067002 2.7956768,1 5.00790885,1 L135.996267,1 C138.210587,1 139.998956,2.80067002 139.998956,5.014866 L140,36.9903685 Z" id="Shape" fill="#000000"></path>
                        <g id="Group" transform="translate(13.000000, 6.000000)" fill="#FFFFFF">
                            <path d="M18.952,14.3141538 C18.9216818,10.9671923 21.7109545,9.33888462 21.8385,9.26307692 C20.2588182,6.97534615 17.8103636,6.66276923 16.9499545,6.63784615 C14.8935455,6.42288462 12.8988182,7.86011538 11.8512727,7.86011538 C10.7828182,7.86011538 9.16968182,6.65861538 7.43109091,6.69392308 C5.19381818,6.72819231 3.10081818,8.01484615 1.95290909,10.0128462 C-0.416090909,14.0867308 1.35072727,20.0734615 3.62040909,23.3664231 C4.75577273,24.9791538 6.08245455,26.7798462 7.81895455,26.7165 C9.51781818,26.6469231 10.1524091,25.6406538 12.2025455,25.6406538 C14.2338636,25.6406538 14.8297727,26.7165 16.6007727,26.676 C18.4240455,26.6469231 19.5719545,25.056 20.6675909,23.4287308 C21.9796364,21.5802692 22.5065455,19.7598462 22.5274545,19.6663846 C22.4845909,19.6518462 18.9865,18.3257308 18.952,14.3141538 Z" id="Shape"></path>
                            <path d="M15.6065455,4.47161538 C16.5202727,3.33657692 17.1454545,1.79238462 16.9719091,0.225346154 C15.6494091,0.2835 13.9955,1.134 13.0430909,2.24411538 C12.2004545,3.22234615 11.4477273,4.82573077 11.6421818,6.33357692 C13.1277727,6.44365385 14.6530909,5.589 15.6065455,4.47161538 Z" id="Shape"></path>
                        </g>
                        <g id="Group" transform="translate(44.000000, 19.000000)" fill="#FFFFFF">
                            <path d="M12.2200617,14.2542222 L9.83691358,14.2542222 L8.53148148,10.1280556 L3.99395062,10.1280556 L2.7504321,14.2542222 L0.430246914,14.2542222 L4.92580247,0.206888889 L7.70246914,0.206888889 L12.2200617,14.2542222 Z M8.13796296,8.39694444 L6.95740741,4.72888889 C6.83253086,4.35416667 6.59851852,3.47172222 6.2532716,2.08261111 L6.2112963,2.08261111 C6.07382716,2.68005556 5.85240741,3.5625 5.54808642,4.72888889 L4.38851852,8.39694444 L8.13796296,8.39694444 Z" id="Shape"></path>
                            <path d="M23.7811111,9.06511111 C23.7811111,10.7877778 23.3183333,12.1494444 22.3927778,13.1490556 C21.5637654,14.0388889 20.534321,14.4832778 19.3054938,14.4832778 C17.9790741,14.4832778 17.0262346,14.0040556 16.4459259,13.0456111 L16.4039506,13.0456111 L16.4039506,18.3814444 L14.1666667,18.3814444 L14.1666667,7.45961111 C14.1666667,6.37661111 14.1383333,5.26511111 14.0837654,4.12511111 L16.051358,4.12511111 L16.1762346,5.73061111 L16.2182099,5.73061111 C16.964321,4.52094444 18.0966049,3.91716667 19.6161111,3.91716667 C20.8040123,3.91716667 21.795679,4.389 22.5890123,5.33372222 C23.3844444,6.2795 23.7811111,7.52294444 23.7811111,9.06511111 Z M21.5018519,9.14744444 C21.5018519,8.16155556 21.2814815,7.34877778 20.838642,6.70911111 C20.3548765,6.042 19.7053086,5.70844444 18.8909877,5.70844444 C18.3390123,5.70844444 17.8374074,5.89422222 17.389321,6.2605 C16.9401852,6.62994444 16.646358,7.11233333 16.5088889,7.70977778 C16.4396296,7.98844444 16.405,8.21644444 16.405,8.39588889 L16.405,10.0847778 C16.405,10.8215556 16.6295679,11.4432778 17.0787037,11.951 C17.5278395,12.4587222 18.1112963,12.7120556 18.8290741,12.7120556 C19.6717284,12.7120556 20.3275926,12.3848333 20.7966667,11.7325 C21.2667901,11.0791111 21.5018519,10.2177778 21.5018519,9.14744444 Z" id="Shape"></path>
                            <path d="M35.3631481,9.06511111 C35.3631481,10.7877778 34.9003704,12.1494444 33.9737654,13.1490556 C33.1458025,14.0388889 32.116358,14.4832778 30.8875309,14.4832778 C29.5611111,14.4832778 28.6082716,14.0040556 28.0290123,13.0456111 L27.987037,13.0456111 L27.987037,18.3814444 L25.7497531,18.3814444 L25.7497531,7.45961111 C25.7497531,6.37661111 25.7214198,5.26511111 25.6668519,4.12511111 L27.6344444,4.12511111 L27.759321,5.73061111 L27.8012963,5.73061111 C28.546358,4.52094444 29.678642,3.91716667 31.1991975,3.91716667 C32.3860494,3.91716667 33.377716,4.389 34.1731481,5.33372222 C34.9654321,6.2795 35.3631481,7.52294444 35.3631481,9.06511111 Z M33.0838889,9.14744444 C33.0838889,8.16155556 32.8624691,7.34877778 32.4196296,6.70911111 C31.9358642,6.042 31.2883951,5.70844444 30.4730247,5.70844444 C29.92,5.70844444 29.4194444,5.89422222 28.9703086,6.2605 C28.5211728,6.62994444 28.2283951,7.11233333 28.0909259,7.70977778 C28.022716,7.98844444 27.987037,8.21644444 27.987037,8.39588889 L27.987037,10.0847778 C27.987037,10.8215556 28.2116049,11.4432778 28.658642,11.951 C29.1077778,12.4576667 29.6912346,12.7120556 30.4111111,12.7120556 C31.2537654,12.7120556 31.9096296,12.3848333 32.3787037,11.7325 C32.8488272,11.0791111 33.0838889,10.2177778 33.0838889,9.14744444 Z" id="Shape"></path>
                            <path d="M48.3125309,10.3148889 C48.3125309,11.5097778 47.9001235,12.4819444 47.0721605,13.2324444 C46.1623457,14.0526111 44.8957407,14.4621667 43.2681481,14.4621667 C41.7654321,14.4621667 40.5607407,14.1708333 39.6488272,13.5871111 L40.1672222,11.7113889 C41.1494444,12.3088333 42.2271605,12.6086111 43.4014198,12.6086111 C44.2440741,12.6086111 44.8999383,12.4165 45.3711111,12.0343889 C45.8401852,11.6522778 46.0741975,11.1392778 46.0741975,10.4996111 C46.0741975,9.92961111 45.8811111,9.44933333 45.4938889,9.05983333 C45.1087654,8.67033333 44.4654938,8.30827778 43.5672222,7.97366667 C41.1221605,7.05638889 39.900679,5.71266667 39.900679,3.94566667 C39.900679,2.79088889 40.3288272,1.84405556 41.1861728,1.10727778 C42.0403704,0.369444444 43.18,0.00105555556 44.6050617,0.00105555556 C45.8758642,0.00105555556 46.9315432,0.223777778 47.7741975,0.668166667 L47.2148765,2.50272222 C46.4278395,2.07205556 45.537963,1.85672222 44.5420988,1.85672222 C43.7550617,1.85672222 43.1401235,2.052 42.6993827,2.44044444 C42.3268519,2.78772222 42.1400617,3.211 42.1400617,3.71238889 C42.1400617,4.26761111 42.3530864,4.72677778 42.7812346,5.08777778 C43.1537654,5.42133333 43.8306173,5.78233333 44.8128395,6.17183333 C46.0143827,6.65844444 46.8969136,7.22738889 47.4646296,7.87972222 C48.0302469,8.52994444 48.3125309,9.34377778 48.3125309,10.3148889 Z" id="Shape"></path>
                            <path d="M55.7096296,5.814 L53.2435802,5.814 L53.2435802,10.7318333 C53.2435802,11.9826667 53.6780247,12.6075556 54.5490123,12.6075556 C54.9488272,12.6075556 55.2804321,12.5727222 55.5427778,12.5030556 L55.6046914,14.212 C55.1639506,14.3777222 54.583642,14.4611111 53.8648148,14.4611111 C52.9812346,14.4611111 52.2907407,14.1898333 51.792284,13.6483333 C51.2959259,13.1057778 51.0461728,12.1958889 51.0461728,10.9176111 L51.0461728,5.81188889 L49.577037,5.81188889 L49.577037,4.123 L51.0461728,4.123 L51.0461728,2.26838889 L53.2435802,1.60127778 L53.2435802,4.123 L55.7096296,4.123 L55.7096296,5.814 Z" id="Shape"></path>
                            <path d="M66.8362346,9.10627778 C66.8362346,10.6632222 66.3933951,11.9415 65.5098148,12.9411111 C64.5832099,13.9702778 63.3533333,14.4832778 61.8201852,14.4832778 C60.3426543,14.4832778 59.1662963,13.9903333 58.2890123,13.0044444 C57.4117284,12.0185556 56.9730864,10.7740556 56.9730864,9.27411111 C56.9730864,7.7045 57.424321,6.41883333 58.3299383,5.41922222 C59.2334568,4.41855556 60.4528395,3.91822222 61.9859877,3.91822222 C63.4635185,3.91822222 64.6524691,4.41116667 65.5496914,5.39811111 C66.4080864,6.3555 66.8362346,7.59155556 66.8362346,9.10627778 Z M64.515,9.17911111 C64.515,8.24494444 64.3166667,7.44377778 63.9147531,6.77561111 C63.445679,5.96705556 62.7751235,5.56383333 61.9062346,5.56383333 C61.0069136,5.56383333 60.3237654,5.96811111 59.8546914,6.77561111 C59.4527778,7.44483333 59.2544444,8.25866667 59.2544444,9.22133333 C59.2544444,10.1555 59.4527778,10.9566667 59.8546914,11.6237778 C60.3384568,12.4323333 61.0142593,12.8355556 61.8862963,12.8355556 C62.7404938,12.8355556 63.4110494,12.4238889 63.8948148,11.6026667 C64.3072222,10.9218333 64.515,10.1122222 64.515,9.17911111 Z" id="Shape"></path>
                            <path d="M74.1084568,6.10427778 C73.887037,6.06311111 73.6509259,6.042 73.4032716,6.042 C72.6162346,6.042 72.0075926,6.34072222 71.5794444,6.93922222 C71.2069136,7.467 71.0201235,8.13411111 71.0201235,8.9395 L71.0201235,14.2542222 L68.7838889,14.2542222 L68.8048765,7.315 C68.8048765,6.14755556 68.7765432,5.08461111 68.7209259,4.12616667 L70.6696296,4.12616667 L70.7514815,6.06416667 L70.8133951,6.06416667 C71.0495062,5.39811111 71.422037,4.86188889 71.932037,4.45972222 C72.4304938,4.09766667 72.9688272,3.91716667 73.5491358,3.91716667 C73.7558642,3.91716667 73.9426543,3.93194444 74.1084568,3.95833333 L74.1084568,6.10427778 Z" id="Shape"></path>
                            <path d="M84.114321,8.71044444 C84.114321,9.11366667 84.0880864,9.45355556 84.0324691,9.73116667 L77.3206173,9.73116667 C77.3468519,10.7318333 77.6711111,11.4971111 78.2944444,12.0248889 C78.8600617,12.4967222 79.5914815,12.7331667 80.4897531,12.7331667 C81.4835185,12.7331667 82.3901852,12.5737778 83.2055556,12.2539444 L83.5560494,13.8161667 C82.6032099,14.2341667 81.4782716,14.4421111 80.1801852,14.4421111 C78.6187037,14.4421111 77.3930247,13.9797778 76.5010494,13.0561667 C75.6111728,12.1325556 75.1651852,10.8922778 75.1651852,9.33638889 C75.1651852,7.809 75.5796914,6.53705556 76.4097531,5.52266667 C77.278642,4.43966667 78.4529012,3.89816667 79.9304321,3.89816667 C81.3817284,3.89816667 82.4804321,4.43966667 83.2265432,5.52266667 C83.8173457,6.38294444 84.114321,7.44694444 84.114321,8.71044444 Z M81.9809259,8.12672222 C81.9956173,7.45961111 81.8497531,6.88327778 81.5464815,6.39666667 C81.1592593,5.77072222 80.5642593,5.45827778 79.7635802,5.45827778 C79.0321605,5.45827778 78.4371605,5.76333333 77.9827778,6.37555556 C77.6102469,6.86216667 77.3888272,7.44588889 77.3206173,8.12566667 L81.9809259,8.12566667 L81.9809259,8.12672222 Z" id="Shape"></path>
                        </g>
                        <g id="Group" transform="translate(45.000000, 6.000000)" fill="#FFFFFF">
                            <path d="M6.35632911,4.009 C6.35632911,5.186 5.9854557,6.072 5.24475949,6.667 C4.5586962,7.216 3.58370886,7.491 2.3208481,7.491 C1.69467089,7.491 1.1588481,7.465 0.710227848,7.413 L0.710227848,0.982 C1.29543038,0.892 1.92581013,0.846 2.60662025,0.846 C3.80959494,0.846 4.71629114,1.095 5.32775949,1.593 C6.01277215,2.156 6.35632911,2.961 6.35632911,4.009 Z M5.19537975,4.038 C5.19537975,3.275 4.9831519,2.69 4.5586962,2.282 C4.13424051,1.875 3.51436709,1.671 2.69802532,1.671 C2.35131646,1.671 2.05608861,1.693 1.81129114,1.739 L1.81129114,6.628 C1.94682278,6.648 2.19477215,6.657 2.55513924,6.657 C3.39774684,6.657 4.04808861,6.434 4.50616456,5.988 C4.96424051,5.542 5.19537975,4.892 5.19537975,4.038 Z" id="Shape"></path>
                            <path d="M12.5119873,5.037 C12.5119873,5.762 12.2945063,6.356 11.8595443,6.822 C11.4035696,7.301 10.7994557,7.54 10.0451013,7.54 C9.31806329,7.54 8.73916456,7.311 8.30735443,6.851 C7.87659494,6.392 7.66121519,5.813 7.66121519,5.115 C7.66121519,4.385 7.88289873,3.786 8.32836709,3.321 C8.77383544,2.856 9.3726962,2.623 10.1270506,2.623 C10.8540886,2.623 11.4382405,2.852 11.880557,3.311 C12.3008101,3.757 12.5119873,4.333 12.5119873,5.037 Z M11.3699494,5.071 C11.3699494,4.636 11.2711899,4.263 11.0747215,3.952 C10.8435823,3.576 10.5147342,3.388 10.0871266,3.388 C9.64481013,3.388 9.30860759,3.576 9.07746835,3.952 C8.87994937,4.263 8.78224051,4.642 8.78224051,5.09 C8.78224051,5.525 8.881,5.898 9.07746835,6.209 C9.31596203,6.585 9.64796203,6.773 10.0766203,6.773 C10.4968734,6.773 10.8267722,6.582 11.0642152,6.199 C11.268038,5.882 11.3699494,5.506 11.3699494,5.071 Z" id="Shape"></path>
                            <path d="M20.7657595,2.719 L19.2160759,7.433 L18.2074684,7.433 L17.5655316,5.386 C17.4026835,4.875 17.2703038,4.367 17.1673418,3.863 L17.1473797,3.863 C17.0517722,4.381 16.9193924,4.888 16.7491899,5.386 L16.0673291,7.433 L15.0471646,7.433 L13.5899367,2.719 L14.7214684,2.719 L15.2814557,4.96 C15.4169873,5.49 15.5283544,5.995 15.6176582,6.473 L15.6376203,6.473 C15.7195696,6.079 15.8551013,5.577 16.0463165,4.97 L16.7491899,2.72 L17.6464304,2.72 L18.3198861,4.922 C18.4827342,5.459 18.6151139,5.976 18.7170253,6.474 L18.7474937,6.474 C18.8220886,5.989 18.9345063,5.472 19.0836962,4.922 L19.6846582,2.72 L20.7657595,2.72 L20.7657595,2.719 Z" id="Shape"></path>
                            <path d="M26.4738481,7.433 L25.3727848,7.433 L25.3727848,4.733 C25.3727848,3.901 25.0407848,3.485 24.3746835,3.485 C24.0479367,3.485 23.7842278,3.599 23.5793544,3.828 C23.3765823,4.057 23.2736203,4.327 23.2736203,4.636 L23.2736203,7.432 L22.172557,7.432 L22.172557,4.066 C22.172557,3.652 22.1588987,3.203 22.1326329,2.717 L23.1002658,2.717 L23.1517468,3.454 L23.1822152,3.454 C23.3103924,3.225 23.5016076,3.036 23.7527089,2.885 C24.0510886,2.709 24.3851899,2.62 24.7508101,2.62 C25.2130886,2.62 25.5976203,2.762 25.9033544,3.047 C26.2836835,3.396 26.4738481,3.917 26.4738481,4.609 L26.4738481,7.433 Z" id="Shape"></path>
                            <polygon id="Shape" points="29.5101772 7.433 28.4101646 7.433 28.4101646 0.556 29.5101772 0.556"></polygon>
                            <path d="M35.9925823,5.037 C35.9925823,5.762 35.7751013,6.356 35.3401392,6.822 C34.8841646,7.301 34.279,7.54 33.5256962,7.54 C32.7976076,7.54 32.2187089,7.311 31.7879494,6.851 C31.3571899,6.392 31.1418101,5.813 31.1418101,5.115 C31.1418101,4.385 31.3634937,3.786 31.808962,3.321 C32.2544304,2.856 32.8532911,2.623 33.6065949,2.623 C34.3346835,2.623 34.9177848,2.852 35.3611519,3.311 C35.7814051,3.757 35.9925823,4.333 35.9925823,5.037 Z M34.8494937,5.071 C34.8494937,4.636 34.7507342,4.263 34.5542658,3.952 C34.3241772,3.576 33.9942785,3.388 33.5677215,3.388 C33.1243544,3.388 32.7881519,3.576 32.5580633,3.952 C32.3605443,4.263 32.2628354,4.642 32.2628354,5.09 C32.2628354,5.525 32.3615949,5.898 32.5580633,6.209 C32.796557,6.585 33.128557,6.773 33.5572152,6.773 C33.9774684,6.773 34.3063165,6.582 34.5437595,6.199 C34.7486329,5.882 34.8494937,5.506 34.8494937,5.071 Z" id="Shape"></path>
                            <path d="M41.3213924,7.433 L40.3327468,7.433 L40.2507975,6.89 L40.2203291,6.89 C39.8820253,7.323 39.3997848,7.54 38.7736076,7.54 C38.3060759,7.54 37.9278481,7.397 37.6431266,7.113 C37.3846709,6.855 37.255443,6.534 37.255443,6.153 C37.255443,5.577 37.5075949,5.138 38.0150506,4.834 C38.5214557,4.53 39.2337848,4.381 40.1509873,4.388 L40.1509873,4.3 C40.1509873,3.679 39.808481,3.369 39.1224177,3.369 C38.6338734,3.369 38.2031139,3.486 37.8311899,3.718 L37.6074051,3.03 C38.0675823,2.759 38.6359747,2.623 39.3062785,2.623 C40.6006582,2.623 41.2499494,3.273 41.2499494,4.573 L41.2499494,6.309 C41.2499494,6.78 41.2741139,7.155 41.3213924,7.433 Z M40.1783038,5.813 L40.1783038,5.086 C38.9637722,5.066 38.3565063,5.383 38.3565063,6.036 C38.3565063,6.282 38.4258481,6.466 38.5676835,6.589 C38.709519,6.712 38.8902278,6.773 39.1056076,6.773 C39.3472532,6.773 39.5731392,6.7 39.7790633,6.555 C39.986038,6.409 40.1131646,6.224 40.160443,5.997 C40.172,5.946 40.1783038,5.884 40.1783038,5.813 Z" id="Shape"></path>
                            <path d="M47.5779114,7.433 L46.6008228,7.433 L46.5493418,6.676 L46.5188734,6.676 C46.2068354,7.252 45.6752152,7.54 44.9282152,7.54 C44.3314557,7.54 43.8345063,7.317 43.440519,6.871 C43.0465316,6.425 42.8500633,5.846 42.8500633,5.135 C42.8500633,4.372 43.0633418,3.754 43.492,3.282 C43.907,2.842 44.4155063,2.622 45.0206709,2.622 C45.6857215,2.622 46.1511519,2.835 46.4159114,3.262 L46.4369241,3.262 L46.4369241,0.556 L47.539038,0.556 L47.539038,6.163 C47.539038,6.622 47.5516456,7.045 47.5779114,7.433 Z M46.4369241,5.445 L46.4369241,4.659 C46.4369241,4.523 46.4264177,4.413 46.4064557,4.329 C46.3444684,4.077 46.211038,3.865 46.0082658,3.694 C45.8033924,3.523 45.5564937,3.437 45.2717722,3.437 C44.8609747,3.437 44.539481,3.592 44.3030886,3.903 C44.0687975,4.214 43.9500759,4.611 43.9500759,5.096 C43.9500759,5.562 44.0624937,5.94 44.2883797,6.231 C44.5268734,6.541 44.8483671,6.696 45.2507595,6.696 C45.6121772,6.696 45.9011013,6.567 46.1206835,6.308 C46.3329114,6.069 46.4369241,5.781 46.4369241,5.445 Z" id="Shape"></path>
                            <path d="M56.9947342,5.037 C56.9947342,5.762 56.7772532,6.356 56.3422911,6.822 C55.8863165,7.301 55.2832532,7.54 54.5278481,7.54 C53.8018608,7.54 53.222962,7.311 52.7901013,6.851 C52.3593418,6.392 52.143962,5.813 52.143962,5.115 C52.143962,4.385 52.3656456,3.786 52.8111139,3.321 C53.2565823,2.856 53.855443,2.623 54.6108481,2.623 C55.3368354,2.623 55.922038,2.852 56.3633038,3.311 C56.783557,3.757 56.9947342,4.333 56.9947342,5.037 Z M55.8537468,5.071 C55.8537468,4.636 55.7549873,4.263 55.558519,3.952 C55.3263291,3.576 54.9985316,3.388 54.5698734,3.388 C54.1286076,3.388 53.7924051,3.576 53.5602152,3.952 C53.3626962,4.263 53.2649873,4.642 53.2649873,5.09 C53.2649873,5.525 53.3637468,5.898 53.5602152,6.209 C53.7987089,6.585 54.1307089,6.773 54.5593671,6.773 C54.9796203,6.773 55.3105696,6.582 55.5480127,6.199 C55.7507848,5.882 55.8537468,5.506 55.8537468,5.071 Z" id="Shape"></path>
                            <path d="M62.9150506,7.433 L61.815038,7.433 L61.815038,4.733 C61.815038,3.901 61.483038,3.485 60.8158861,3.485 C60.4891392,3.485 60.2254304,3.599 60.0216076,3.828 C59.8177848,4.057 59.7158734,4.327 59.7158734,4.636 L59.7158734,7.432 L58.6137595,7.432 L58.6137595,4.066 C58.6137595,3.652 58.6011519,3.203 58.5748861,2.717 L59.5414684,2.717 L59.5929494,3.454 L59.6234177,3.454 C59.7526456,3.225 59.9438608,3.036 60.1939114,2.885 C60.4933418,2.709 60.8263924,2.62 61.1930633,2.62 C61.6542911,2.62 62.0388228,2.762 62.344557,3.047 C62.7259367,3.396 62.9150506,3.917 62.9150506,4.609 L62.9150506,7.433 Z" id="Shape"></path>
                            <path d="M70.3251646,3.504 L69.1127342,3.504 L69.1127342,5.794 C69.1127342,6.376 69.3281139,6.667 69.7546709,6.667 C69.9521899,6.667 70.1160886,6.651 70.2453165,6.618 L70.2736835,7.413 C70.0562025,7.491 69.7704304,7.53 69.4184684,7.53 C68.9835063,7.53 68.6452025,7.404 68.4004051,7.152 C68.154557,6.9 68.0326835,6.476 68.0326835,5.881 L68.0326835,3.504 L67.3087975,3.504 L67.3087975,2.719 L68.0326835,2.719 L68.0326835,1.855 L69.1116835,1.545 L69.1116835,2.718 L70.3241139,2.718 L70.3241139,3.504 L70.3251646,3.504 Z" id="Shape"></path>
                            <path d="M76.1540759,7.433 L75.051962,7.433 L75.051962,4.753 C75.051962,3.908 74.719962,3.485 74.0549114,3.485 C73.5443038,3.485 73.1954937,3.73 73.0042785,4.22 C72.9717089,4.323 72.9527975,4.449 72.9527975,4.597 L72.9527975,7.432 L71.8527848,7.432 L71.8527848,0.556 L72.9527975,0.556 L72.9527975,3.397 L72.9738101,3.397 C73.320519,2.88 73.8174684,2.622 74.4615063,2.622 C74.917481,2.622 75.2946582,2.764 75.5940886,3.049 C75.9670633,3.404 76.1540759,3.932 76.1540759,4.63 L76.1540759,7.433 Z" id="Shape"></path>
                            <path d="M82.1668481,4.853 C82.1668481,5.041 82.1521392,5.199 82.1258734,5.328 L78.8237342,5.328 C78.838443,5.794 78.996038,6.149 79.3017722,6.395 C79.5812405,6.615 79.9416076,6.725 80.3828734,6.725 C80.8714177,6.725 81.3168861,6.651 81.7182278,6.502 L81.8905316,7.23 C81.4208987,7.424 80.8682658,7.521 80.2284304,7.521 C79.4614684,7.521 78.8573544,7.306 78.4202911,6.876 C77.9811266,6.446 77.7636456,5.869 77.7636456,5.145 C77.7636456,4.434 77.9664177,3.842 78.3751139,3.37 C78.8016709,2.866 79.3784684,2.614 80.106557,2.614 C80.8188861,2.614 81.359962,2.866 81.7255823,3.37 C82.0208101,3.77 82.1668481,4.265 82.1668481,4.853 Z M81.1162152,4.582 C81.1246203,4.271 81.0521266,4.003 80.9029367,3.777 C80.7117215,3.486 80.4206962,3.34 80.0267089,3.34 C79.6673924,3.34 79.3742658,3.482 79.150481,3.767 C78.9676709,3.994 78.8594557,4.265 78.8237342,4.582 L81.1162152,4.582 Z" id="Shape"></path>
                        </g>
                    </g>
                </g>
            </g>
        </g>
    </g>
</svg>