<?xml version="1.0" encoding="UTF-8"?>
<svg width="139px" height="41px" viewBox="0 0 139 41" version="1.1" xmlns="http://www.w3.org/2000/svg" xmlns:xlink="http://www.w3.org/1999/xlink">
    <!-- Generator: Sketch 51 (57462) - http://www.bohemiancoding.com/sketch -->
    <title>google-play-badge</title>
    <desc>Created with Sketch.</desc>
    <defs>
        <linearGradient x1="90.7692308%" y1="4.84%" x2="-38.3307692%" y2="71.968%" id="linearGradient-1">
            <stop stop-color="#00A0FF" offset="0%"></stop>
            <stop stop-color="#00A1FF" offset="0.7%"></stop>
            <stop stop-color="#00BEFF" offset="26%"></stop>
            <stop stop-color="#00D2FF" offset="51.2%"></stop>
            <stop stop-color="#00DFFF" offset="76%"></stop>
            <stop stop-color="#00E3FF" offset="100%"></stop>
        </linearGradient>
        <linearGradient x1="107.724138%" y1="49.4235294%" x2="-130.669951%" y2="49.4235294%" id="linearGradient-2">
            <stop stop-color="#FFE000" offset="0%"></stop>
            <stop stop-color="#FFBD00" offset="40.9%"></stop>
            <stop stop-color="#FFA500" offset="77.5%"></stop>
            <stop stop-color="#FF9C00" offset="100%"></stop>
        </linearGradient>
        <linearGradient x1="86.3892216%" y1="17.81427%" x2="-49.8862275%" y2="194.389687%" id="linearGradient-3">
            <stop stop-color="#FF3A44" offset="0%"></stop>
            <stop stop-color="#C31162" offset="100%"></stop>
        </linearGradient>
        <linearGradient x1="-18.5808383%" y1="-54.5282125%" x2="42.2754491%" y2="24.6924404%" id="linearGradient-4">
            <stop stop-color="#32A071" offset="0%"></stop>
            <stop stop-color="#2DA771" offset="6.9%"></stop>
            <stop stop-color="#15CF74" offset="47.6%"></stop>
            <stop stop-color="#06E775" offset="80.1%"></stop>
            <stop stop-color="#00F076" offset="100%"></stop>
        </linearGradient>
    </defs>
    <g id="Page-1" stroke="none" stroke-width="1" fill="none" fill-rule="evenodd">
        <g id="Hudle-landing-page" transform="translate(-111.000000, -3782.000000)" fill-rule="nonzero">
            <g id="footer-section" transform="translate(0.000000, 3599.000000)">
                <g id="logo-n-download" transform="translate(110.000000, 60.000000)">
                    <g id="google-play-badge" transform="translate(1.000000, 123.000000)">
                        <path d="M133.851852,41 L5.14814815,41 C2.26518519,41 0,38.745 0,35.875 L0,5.125 C0,2.255 2.26518519,0 5.14814815,0 L133.851852,0 C136.734815,0 139,2.255 139,5.125 L139,35.875 C139,38.745 136.734815,41 133.851852,41 Z" id="Shape" fill="#000000"></path>
                        <path d="M133.851852,0.82 C136.22,0.82 138.176296,2.7675 138.176296,5.125 L138.176296,35.875 C138.176296,38.2325 136.22,40.18 133.851852,40.18 L5.14814815,40.18 C2.78,40.18 0.823703704,38.2325 0.823703704,35.875 L0.823703704,5.125 C0.823703704,2.7675 2.78,0.82 5.14814815,0.82 L133.851852,0.82 Z M133.851852,0 L5.14814815,0 C2.26518519,0 0,2.3575 0,5.125 L0,35.875 C0,38.745 2.26518519,41 5.14814815,41 L133.851852,41 C136.734815,41 139,38.745 139,35.875 L139,5.125 C139,2.3575 136.734815,0 133.851852,0 Z" id="Shape"></path>
                        <path d="M49.185567,10.7258065 C49.185567,11.6290323 48.9793814,12.4193548 48.4639175,12.983871 C47.8453608,13.6612903 47.1237113,14 46.1958763,14 C45.2680412,14 44.5463918,13.6612903 43.9278351,12.983871 C43.3092784,12.3064516 43,11.516129 43,10.5 C43,9.48387097 43.3092784,8.69354839 43.9278351,8.01612903 C44.5463918,7.33870968 45.2680412,7 46.1958763,7 C46.6082474,7 47.0206186,7.11290323 47.4329897,7.33870968 C47.8453608,7.56451613 48.1546392,7.79032258 48.3608247,8.12903226 L47.8453608,8.69354839 C47.4329897,8.12903226 46.9175258,7.90322581 46.1958763,7.90322581 C45.5773196,7.90322581 44.9587629,8.12903226 44.5463918,8.69354839 C44.0309278,9.14516129 43.8247423,9.82258065 43.8247423,10.6129032 C43.8247423,11.4032258 44.0309278,12.0806452 44.5463918,12.5322581 C45.0618557,12.983871 45.5773196,13.3225806 46.1958763,13.3225806 C46.9175258,13.3225806 47.4329897,13.0967742 47.9484536,12.5322581 C48.257732,12.1935484 48.4639175,11.7419355 48.4639175,11.1774194 L46.1958763,11.1774194 L46.1958763,10.2741935 L49.185567,10.2741935 L49.185567,10.7258065 Z M53.9278351,7.90322581 L51.1443299,7.90322581 L51.1443299,10.0483871 L53.7216495,10.0483871 L53.7216495,10.8387097 L51.1443299,10.8387097 L51.1443299,12.983871 L53.9278351,12.983871 L53.9278351,13.8870968 L50.3195876,13.8870968 L50.3195876,7.11290323 L53.9278351,7.11290323 L53.9278351,7.90322581 Z M57.3298969,13.8870968 L56.5051546,13.8870968 L56.5051546,7.90322581 L54.7525773,7.90322581 L54.7525773,7.11290323 L59.0824742,7.11290323 L59.0824742,7.90322581 L57.3298969,7.90322581 L57.3298969,13.8870968 Z M62.0721649,13.8870968 L62.0721649,7.11290323 L62.8969072,7.11290323 L62.8969072,13.8870968 L62.0721649,13.8870968 Z M66.4020619,13.8870968 L65.5773196,13.8870968 L65.5773196,7.90322581 L63.8247423,7.90322581 L63.8247423,7.11290323 L68.0515464,7.11290323 L68.0515464,7.90322581 L66.2989691,7.90322581 L66.2989691,13.8870968 L66.4020619,13.8870968 Z M76.1958763,12.983871 C75.5773196,13.6612903 74.8556701,14 73.9278351,14 C73,14 72.2783505,13.6612903 71.6597938,12.983871 C71.0412371,12.3064516 70.7319588,11.516129 70.7319588,10.5 C70.7319588,9.48387097 71.0412371,8.69354839 71.6597938,8.01612903 C72.2783505,7.33870968 73,7 73.9278351,7 C74.8556701,7 75.5773196,7.33870968 76.1958763,8.01612903 C76.814433,8.69354839 77.1237113,9.48387097 77.1237113,10.5 C77.1237113,11.516129 76.814433,12.3064516 76.1958763,12.983871 Z M72.2783505,12.4193548 C72.6907216,12.8709677 73.3092784,13.2096774 73.9278351,13.2096774 C74.5463918,13.2096774 75.1649485,12.983871 75.5773196,12.4193548 C75.9896907,11.9677419 76.2989691,11.2903226 76.2989691,10.5 C76.2989691,9.70967742 76.0927835,9.03225806 75.5773196,8.58064516 C75.1649485,8.12903226 74.5463918,7.79032258 73.9278351,7.79032258 C73.3092784,7.79032258 72.6907216,8.01612903 72.2783505,8.58064516 C71.8659794,9.03225806 71.556701,9.70967742 71.556701,10.5 C71.556701,11.2903226 71.7628866,11.9677419 72.2783505,12.4193548 Z M78.257732,13.8870968 L78.257732,7.11290323 L79.185567,7.11290323 L82.1752577,12.4193548 L82.1752577,7.11290323 L83,7.11290323 L83,13.8870968 L82.1752577,13.8870968 L78.9793814,8.35483871 L78.9793814,13.8870968 L78.257732,13.8870968 Z" id="Shape" stroke="#FFFFFF" stroke-width="0.2" fill="#FFFFFF"></path>
                        <path d="M70.7659574,22.7278107 C68.2978723,22.7278107 66.3439716,24.5384615 66.3439716,27.0532544 C66.3439716,29.4674556 68.2978723,31.3786982 70.7659574,31.3786982 C73.2340426,31.3786982 75.1879433,29.5680473 75.1879433,27.0532544 C75.1879433,24.4378698 73.2340426,22.7278107 70.7659574,22.7278107 Z M70.7659574,29.5680473 C69.429078,29.5680473 68.2978723,28.4615385 68.2978723,26.9526627 C68.2978723,25.443787 69.429078,24.3372781 70.7659574,24.3372781 C72.1028369,24.3372781 73.2340426,25.3431953 73.2340426,26.9526627 C73.2340426,28.4615385 72.1028369,29.5680473 70.7659574,29.5680473 Z M61.2021277,22.7278107 C58.7340426,22.7278107 56.7801418,24.5384615 56.7801418,27.0532544 C56.7801418,29.4674556 58.7340426,31.3786982 61.2021277,31.3786982 C63.6702128,31.3786982 65.6241135,29.5680473 65.6241135,27.0532544 C65.6241135,24.4378698 63.6702128,22.7278107 61.2021277,22.7278107 Z M61.2021277,29.5680473 C59.8652482,29.5680473 58.7340426,28.4615385 58.7340426,26.9526627 C58.7340426,25.443787 59.8652482,24.3372781 61.2021277,24.3372781 C62.5390071,24.3372781 63.6702128,25.3431953 63.6702128,26.9526627 C63.6702128,28.4615385 62.5390071,29.5680473 61.2021277,29.5680473 Z M49.787234,24.035503 L49.787234,25.8461538 L54.2092199,25.8461538 C54.106383,26.852071 53.6950355,27.6568047 53.1808511,28.1597633 C52.5638298,28.7633136 51.535461,29.4674556 49.787234,29.4674556 C47.0106383,29.4674556 44.9539007,27.3550296 44.9539007,24.6390533 C44.9539007,21.9230769 47.1134752,19.8106509 49.787234,19.8106509 C51.2269504,19.8106509 52.358156,20.4142012 53.1808511,21.1183432 L54.5177305,19.8106509 C53.3865248,18.8047337 51.9468085,18 49.8900709,18 C46.1879433,18 43,21.0177515 43,24.6390533 C43,28.260355 46.1879433,31.2781065 49.8900709,31.2781065 C51.9468085,31.2781065 53.3865248,30.6745562 54.6205674,29.3668639 C55.8546099,28.1597633 56.2659574,26.4497041 56.2659574,25.1420118 C56.2659574,24.739645 56.2659574,24.3372781 56.1631206,24.035503 L49.787234,24.035503 Z M96.4751773,25.443787 C96.0638298,24.4378698 95.035461,22.7278107 92.7730496,22.7278107 C90.5106383,22.7278107 88.6595745,24.4378698 88.6595745,27.0532544 C88.6595745,29.4674556 90.5106383,31.3786982 92.9787234,31.3786982 C94.9326241,31.3786982 96.1666667,30.1715976 96.5780142,29.4674556 L95.1382979,28.4615385 C94.6241135,29.1656805 94.0070922,29.6686391 92.9787234,29.6686391 C91.9503546,29.6686391 91.3333333,29.2662722 90.8191489,28.3609467 L96.6808511,25.9467456 L96.4751773,25.443787 Z M90.5106383,26.852071 C90.5106383,25.2426036 91.8475177,24.3372781 92.7730496,24.3372781 C93.4929078,24.3372781 94.212766,24.739645 94.4184397,25.2426036 L90.5106383,26.852071 Z M85.677305,30.9763314 L87.6312057,30.9763314 L87.6312057,18.4023669 L85.677305,18.4023669 L85.677305,30.9763314 Z M82.5921986,23.6331361 C82.0780142,23.1301775 81.2553191,22.6272189 80.2269504,22.6272189 C78.0673759,22.6272189 76.0106383,24.5384615 76.0106383,26.9526627 C76.0106383,29.3668639 77.964539,31.1775148 80.2269504,31.1775148 C81.2553191,31.1775148 82.0780142,30.6745562 82.4893617,30.1715976 L82.5921986,30.1715976 L82.5921986,30.7751479 C82.5921986,32.3846154 81.6666667,33.2899408 80.2269504,33.2899408 C79.0957447,33.2899408 78.2730496,32.4852071 78.0673759,31.7810651 L76.4219858,32.4852071 C76.9361702,33.591716 78.1702128,35 80.3297872,35 C82.5921986,35 84.4432624,33.6923077 84.4432624,30.5739645 L84.4432624,22.9289941 L82.5921986,22.9289941 L82.5921986,23.6331361 Z M80.3297872,29.5680473 C78.9929078,29.5680473 77.8617021,28.4615385 77.8617021,26.9526627 C77.8617021,25.443787 78.9929078,24.3372781 80.3297872,24.3372781 C81.6666667,24.3372781 82.6950355,25.443787 82.6950355,26.9526627 C82.6950355,28.4615385 81.6666667,29.5680473 80.3297872,29.5680473 Z M105.421986,18.4023669 L100.794326,18.4023669 L100.794326,30.9763314 L102.748227,30.9763314 L102.748227,26.2485207 L105.421986,26.2485207 C107.58156,26.2485207 109.638298,24.739645 109.638298,22.3254438 C109.638298,19.9112426 107.58156,18.4023669 105.421986,18.4023669 Z M105.524823,24.4378698 L102.748227,24.4378698 L102.748227,20.112426 L105.524823,20.112426 C106.964539,20.112426 107.787234,21.3195266 107.787234,22.2248521 C107.684397,23.3313609 106.861702,24.4378698 105.524823,24.4378698 Z M117.351064,22.6272189 C115.911348,22.6272189 114.471631,23.2307692 113.957447,24.5384615 L115.705674,25.2426036 C116.117021,24.5384615 116.734043,24.3372781 117.453901,24.3372781 C118.48227,24.3372781 119.407801,24.9408284 119.510638,25.9467456 L119.510638,26.0473373 C119.202128,25.8461538 118.379433,25.5443787 117.556738,25.5443787 C115.705674,25.5443787 113.85461,26.5502959 113.85461,28.3609467 C113.85461,30.0710059 115.397163,31.1775148 117.042553,31.1775148 C118.379433,31.1775148 118.996454,30.5739645 119.510638,29.9704142 L119.613475,29.9704142 L119.613475,30.9763314 L121.464539,30.9763314 L121.464539,26.147929 C121.258865,23.9349112 119.510638,22.6272189 117.351064,22.6272189 Z M117.14539,29.5680473 C116.528369,29.5680473 115.602837,29.2662722 115.602837,28.4615385 C115.602837,27.4556213 116.734043,27.1538462 117.659574,27.1538462 C118.48227,27.1538462 118.893617,27.3550296 119.407801,27.556213 C119.202128,28.7633136 118.173759,29.5680473 117.14539,29.5680473 Z M127.943262,22.9289941 L125.783688,28.3609467 L125.680851,28.3609467 L123.41844,22.9289941 L121.361702,22.9289941 L124.755319,30.5739645 L122.801418,34.7988166 L124.755319,34.7988166 L130,22.9289941 L127.943262,22.9289941 Z M110.666667,30.9763314 L112.620567,30.9763314 L112.620567,18.4023669 L110.666667,18.4023669 L110.666667,30.9763314 Z" id="Shape" fill="#FFFFFF"></path>
                        <g id="Group" transform="translate(10.000000, 8.000000)">
                            <path d="M0.4125,0.519230769 C0.103125,0.830769231 0,1.35 0,1.97307692 L0,24.9230769 C0,25.5461538 0.20625,26.0653846 0.515625,26.3769231 L0.61875,26.4807692 L13.40625,13.6038462 L13.40625,13.3961538 L0.4125,0.519230769 Z" id="Shape" fill="url(#linearGradient-1)"></path>
                            <path d="M17.53125,17.9653846 L13.303125,13.7076923 L13.303125,13.3961538 L17.53125,9.13846154 L17.634375,9.24230769 L22.6875,12.15 C24.13125,12.9807692 24.13125,14.3307692 22.6875,15.1615385 L17.53125,17.9653846 Z" id="Shape" fill="url(#linearGradient-2)"></path>
                            <path d="M17.634375,17.8615385 L13.303125,13.5 L0.4125,26.4807692 C0.928125,27 1.65,27 2.578125,26.5846154 L17.634375,17.8615385" id="Shape" fill="url(#linearGradient-3)"></path>
                            <path d="M17.634375,9.13846154 L2.578125,0.519230769 C1.65,1.38777878e-16 0.928125,0.103846154 0.4125,0.623076923 L13.303125,13.5 L17.634375,9.13846154 Z" id="Shape" fill="url(#linearGradient-4)"></path>
                            <path d="M17.53125,17.7576923 L2.578125,26.2730769 C1.753125,26.7923077 1.03125,26.6884615 0.515625,26.2730769 L0.4125,26.3769231 L0.515625,26.4807692 C1.03125,26.8961538 1.753125,27 2.578125,26.4807692 L17.53125,17.7576923 Z" id="Shape" fill="#000000" opacity="0.2"></path>
                            <path d="M0.4125,26.2730769 C0.103125,25.9615385 0,25.4423077 0,24.8192308 L0,24.9230769 C0,25.5461538 0.20625,26.0653846 0.515625,26.3769231 L0.515625,26.2730769 L0.4125,26.2730769 Z M22.6875,14.85 L17.53125,17.7576923 L17.634375,17.8615385 L22.6875,14.9538462 C23.409375,14.5384615 23.71875,14.0192308 23.71875,13.5 C23.71875,14.0192308 23.30625,14.4346154 22.6875,14.85 Z" id="Shape" fill="#000000" opacity="0.12"></path>
                            <path d="M2.578125,0.623076923 L22.6875,12.15 C23.30625,12.5653846 23.71875,12.9807692 23.71875,13.5 C23.71875,12.9807692 23.409375,12.4615385 22.6875,12.0461538 L2.578125,0.519230769 C1.134375,-0.311538462 0,0.311538462 0,1.97307692 L0,2.07692308 C0,0.519230769 1.134375,-0.207692308 2.578125,0.623076923 Z" id="Shape" fill="#FFFFFF" opacity="0.25"></path>
                        </g>
                    </g>
                </g>
            </g>
        </g>
    </g>
</svg>